# xmcd
#
# Track frame offsets:
# 150
# 16569
# 31712
# 47260
# 64801
# 80511
# 93732
# 112999
# 129613
# 146711
# 165492
# 182345
# 199747
# 217752
# 237295
#
# Disc length: 3377 seconds
#
#
# Revision: 0
# Processed by: cddbd v1.5.1PL0 Copyright (c) Steve Scherf et al.
# Submitted via: FreeRIP 2.80 
#
DISCID=b70d2f0f
DTITLE=Varios - Barretos 2004
DYEAR=1900
DGENRE=
TTITLE0=Cara de Boi
TTITLE1=vai so
TTITLE2=Quebradeira
TTITLE3=O Menino da Porteira
TTITLE4=Quero ser seu Dono
TTITLE5=To Doidao
TTITLE6=Casar pra que
TTITLE7=Era so pra ficar
TTITLE8=Furar o couro
TTITLE9=Um louco
TTITLE10=To indo te buscar
TTITLE11=Magia
TTITLE12=Um degrau na escada
TTITLE13=Me da me da
TTITLE14=Pedacinhos
EXTD=
EXTT0=
EXTT1=
EXTT2=
EXTT3=
EXTT4=
EXTT5=
EXTT6=
EXTT7=
EXTT8=
EXTT9=
EXTT10=
EXTT11=
EXTT12=
EXTT13=
EXTT14=
PLAYORDER=
